
<svg xmlns="http://www.w3.org/2000/svg" version="1.1" xmlns:xlink="http://www.w3.org/1999/xlink" preserveAspectRatio="none" x="0px" y="0px" width="330px" height="399px" viewBox="0 0 330 399">
<defs>
<g id="Layer0_0_FILL">
<path fill="#0971BB" stroke="none" d="
M 1264.3 1616.85
L 1257.4 1618.9 1269.15 1659.6 1272.45 1658.8
Q 1317.8 1648 1356.3 1620.7 1356.75 1620.2 1357.35 1619.85 1359.5 1621.25 1362.35 1621.25 1366 1621.25 1368.65 1618.65 1371.25 1616.05 1371.25 1612.35 1371.25 1610.2 1370.35 1608.4 1369.9 1607.5 1369.2 1606.7 1368.95 1606.4 1368.65 1606.05 1366 1603.45 1362.35 1603.45 1358.65 1603.45 1356.05 1606.05 1353.45 1608.7 1353.45 1612.35 1353.45 1613.05 1353.55 1613.8 1352.85 1614.25 1352.15 1614.85 1316.15 1640.4 1274.15 1651.05
L 1264.3 1616.85
M 956.2 1413.65
L 956.35 1417.3
Q 958.2 1513.7 1023.75 1584 1027.1 1587.55 1030.75 1591.1 1063.65 1624 1102.45 1642.4
L 1105.8 1643.95 1108.75 1637.55 1105.55 1636
Q 1067.7 1618.05 1035.75 1586.1 1032.3 1582.55 1029 1579.15 966.55 1512.15 963.55 1420.75
L 999.2 1420.65 999.05 1416.95
Q 998.95 1414.1 998.95 1411.25 998.95 1381.1 1006.3 1354.05 1014.85 1321.65 1033.95 1293.75 1035.4 1294.3 1037.15 1294.3 1040.85 1294.3 1043.45 1291.7 1046.05 1289.1 1046.05 1285.4 1046.05 1281.75 1043.45 1279.15 1040.85 1276.5 1037.15 1276.5 1033.5 1276.5 1030.9 1279.15 1028.25 1281.75 1028.25 1285.4 1028.25 1287.1 1028.85 1288.6 1008.45 1317.95 999.4 1352.25
L 999.4 1352.15
Q 991.8 1380.15 991.8 1411.25 991.8 1412.35 991.8 1413.5
L 956.2 1413.65
M 1164.2 1167.75
L 1167.65 1167.15 1166.45 1160.05 1162.9 1160.75
Q 1093.8 1173 1040.15 1222.15 1038.2 1223.75 1036.45 1225.6 1033.5 1228.2 1030.75 1231.05 982.9 1279 965.6 1340.15 962.4 1340.4 960.1 1342.65 957.5 1345.25 957.5 1348.95 957.5 1352.6 960.1 1355.2 962.75 1357.85 966.4 1357.85 970.1 1357.85 972.7 1355.2 975.3 1352.6 975.3 1348.95 975.3 1345.25 972.7 1342.65 972.6 1342.5 972.35 1342.4 989.1 1282.8 1035.75 1236.05 1038.45 1233.4 1041.3 1230.8
L 1041.3 1230.7
Q 1043.1 1229.05 1044.9 1227.5
L 1045 1227.35
Q 1097.1 1179.65 1164.2 1167.75
M 1366.5 1209.3
Q 1352.5 1198.15 1337.5 1189.5 1306.9 1171.55 1272.1 1163.5 1271.65 1160.9 1269.6 1158.85 1267 1156.25 1263.3 1156.25 1259.65 1156.25 1257.05 1158.85 1254.4 1161.5 1254.4 1165.15 1254.4 1168.85 1257.05 1171.45 1259.65 1174.05 1263.3 1174.05 1267 1174.05 1269.6 1171.45 1270.1 1170.95 1270.55 1170.5 1304.3 1178.35 1333.95 1195.65 1347 1203.25 1359.25 1212.75
L 1337.5 1240.8 1340.35 1243.05
Q 1350.8 1251.2 1360.8 1261.2
L 1360.8 1261.3 1360.9 1261.3
Q 1362.45 1262.75 1363.9 1264.4
L 1366.35 1267 1371.6 1262.15 1369.1 1259.55
Q 1367.45 1257.75 1365.8 1256.1
L 1365.8 1256.2
Q 1356.85 1247.3 1347.5 1239.6
L 1369.2 1211.45 1366.5 1209.3 Z"/>

<path fill="#262B30" stroke="none" d="
M 1181.9 1427.9
L 1181.9 1388.05 1173.05 1388.05 1173.05 1427.9 1181.9 1427.9
M 1223.7 1395.8
L 1223.7 1388.05 1192.2 1388.05 1192.2 1395.8 1203.55 1395.8 1203.55 1427.9 1212.4 1427.9 1212.4 1395.8 1223.7 1395.8
M 1261.65 1396.1
L 1261.65 1388.05 1234.6 1388.05 1234.6 1427.9 1262.65 1427.9 1262.65 1419.75 1243.35 1419.75 1243.35 1411.7 1260.65 1411.7 1260.65 1403.55 1243.35 1403.55 1243.35 1396.1 1261.65 1396.1
M 1132.55 1392.65
Q 1131 1394 1129.9 1395.7 1128.8 1397.3 1128 1399.3 1127.9 1399.55 1127.8 1399.85 1127.15 1401.5 1126.8 1403.35 1126.4 1405.55 1126.4 1407.95 1126.4 1412.4 1127.8 1416.1 1127.9 1416.4 1128 1416.65 1129.6 1420.55 1132.55 1423.3 1135.35 1426 1139.3 1427.5 1143.2 1428.95 1147.95 1428.95 1150 1428.95 1152 1428.55 1154 1428.15 1156 1427.2 1159.85 1425.5 1162.35 1421.95
L 1155.1 1416.55
Q 1153.7 1418.55 1151.6 1419.65 1149.55 1420.75 1146.85 1420.75 1144.45 1420.75 1142.4 1419.85 1140.3 1418.85 1138.8 1417.15 1137.3 1415.45 1136.4 1413.1 1135.55 1410.8 1135.55 1407.95 1135.55 1405.15 1136.4 1402.85 1137.3 1400.4 1138.8 1398.7 1140.4 1397 1142.5 1396.1 1144.65 1395.1 1147.05 1395.1 1149.55 1395.1 1151.5 1396 1153.4 1396.8 1154.7 1398.4
L 1161.45 1392.9
Q 1160.15 1391.25 1158.55 1390.05 1156.8 1388.95 1155.1 1388.25 1153.3 1387.6 1151.5 1387.25
L 1147.95 1386.9
Q 1143.2 1386.9 1139.3 1388.45 1135.35 1389.95 1132.55 1392.65 Z"/>

<path fill="#ACBAC4" stroke="none" d="
M 1275.15 1421.05
Q 1274.75 1421.95 1274.75 1423.1 1274.75 1424.2 1275.15 1425.1 1275.6 1426 1276.3 1426.85 1277 1427.5 1278 1427.85 1278.9 1428.25 1280 1428.25 1281.1 1428.25 1282.05 1427.85 1283.05 1427.5 1283.65 1426.85 1284.45 1426 1284.75 1425.1 1285.25 1424.2 1285.25 1423.1 1285.25 1421.95 1284.75 1421.05 1284.45 1420.05 1283.65 1419.35 1283.05 1418.65 1282.05 1418.25 1281.1 1417.85 1280 1417.85 1278.9 1417.85 1278 1418.25 1277 1418.65 1276.3 1419.35 1275.6 1420.05 1275.15 1421.05
M 1239.95 1281.25
L 1236.5 1280.65
Q 1224.15 1278.3 1210.95 1278.3 1196.35 1278.3 1182.85 1281.15 1182.25 1281.25 1181.75 1281.4 1168.35 1284.1 1156.1 1289.8 1149.45 1292.9 1143.3 1296.7
L 1143.3 1296.55
Q 1139.25 1298.95 1135.35 1301.8 1125.85 1308.55 1117.05 1317.35 1108.75 1325.65 1102.25 1334.8 1087.85 1354.5 1082.15 1378 1078.25 1393.7 1078.25 1411.25 1078.25 1414.1 1078.35 1416.7 1078.7 1426.1 1080.25 1435 1083.1 1452.7 1090.7 1468.7 1092.25 1472.15 1094.25 1475.6
L 1094.25 1475.5
Q 1103.15 1491.3 1117.05 1505.05
L 1117.05 1505.15
Q 1125.85 1513.95 1135.45 1520.7 1136.4 1521.4 1137.6 1522.15 1137.35 1522.95 1137.35 1523.8 1137.35 1527.5 1140 1530.1 1142.6 1532.7 1146.25 1532.7 1149.95 1532.7 1152.55 1530.1 1155.15 1527.5 1155.15 1523.8 1155.15 1520.1 1152.55 1517.5 1149.95 1514.9 1146.25 1514.9 1143.65 1514.9 1141.5 1516.3 1140.55 1515.5 1139.6 1514.9
L 1139.5 1514.9
Q 1130.35 1508.5 1122.15 1500.05
L 1122.05 1500.05
Q 1108.9 1487 1100.45 1472.05
L 1100.45 1471.95
Q 1098.65 1468.85 1097.1 1465.75
L 1097.1 1465.65
Q 1090 1450.55 1087.25 1433.8 1085.85 1425.4 1085.5 1416.5 1085.35 1413.85 1085.35 1411.25 1085.35 1394.65 1089.05 1379.7 1094.5 1357.6 1108.05 1338.95 1114.2 1330.15 1122.05 1322.35 1130.35 1314.05 1139.5 1307.6 1143.05 1304.9 1146.85 1302.75
L 1147 1302.75
Q 1152.8 1299.05 1159.1 1296.2
L 1159.1 1296.35
Q 1170.5 1291 1183.2 1288.4
L 1183.3 1288.25 1183.45 1288.25
Q 1183.8 1288.15 1184.25 1288.15 1197.1 1285.4 1210.95 1285.4 1223.45 1285.4 1235.2 1287.65
L 1238.65 1288.25 1239.95 1281.25
M 1360.05 1571.9
L 1362.8 1569.4 1295.95 1504.7 1293.6 1506.25
Q 1258.7 1528.45 1247.65 1532
L 1244.1 1533.2 1259.9 1574.15
Q 1254.55 1575.55 1249.1 1576.85 1230.8 1580.8 1210.85 1580.8 1170.95 1580.8 1137.7 1564.9 1125.6 1558.95 1114.55 1551.1 1109.7 1547.65 1105.2 1544.1 1097.85 1538.05 1090.95 1531.15
L 1090.85 1531.15
Q 1076.1 1516.2 1065.65 1499.6 1067.3 1497.35 1067.3 1494.35 1067.3 1490.7 1064.7 1488.05 1062.1 1485.45 1058.4 1485.45 1054.75 1485.45 1052.15 1488.05 1049.5 1490.7 1049.5 1494.35 1049.5 1498.05 1052.15 1500.65 1054.75 1503.25 1058.4 1503.25 1059 1503.25 1059.6 1503.25 1070.4 1520.6 1085.85 1536.15
L 1085.85 1536.25
Q 1093.1 1543.25 1100.7 1549.55
L 1100.7 1549.7 1100.8 1549.7
Q 1105.45 1553.35 1110.4 1556.9 1122.05 1565.1 1134.65 1571.3 1169.3 1587.9 1210.85 1587.9 1231.5 1587.9 1250.6 1583.85 1258.2 1582.1 1265.6 1579.85
L 1269.25 1578.65 1253.35 1537.45
Q 1265.7 1532.35 1295 1513.7
L 1352.35 1569.25
Q 1326.5 1592.65 1296.35 1606.2
L 1293.1 1607.6 1295.95 1614.15 1299.2 1612.7
Q 1332.05 1598.1 1360.05 1571.9
M 1298.75 1427.9
L 1323.8 1427.9 1323.8 1419.75 1307.5 1419.75 1307.5 1388.05 1298.75 1388.05 1298.75 1427.9
M 1355.05 1388.05
L 1347.8 1388.05 1330.5 1427.9 1340.25 1427.9 1343.55 1419.45 1359.1 1419.45 1362.5 1427.9 1372.5 1427.9 1355.05 1388.05
M 1356.05 1412
L 1346.3 1412 1351.25 1399.6 1356.05 1412
M 1333.35 1281.85
Q 1332.4 1281.85 1331.6 1282.1 1325.05 1276.15 1318.65 1271.05 1294.45 1251.95 1266.15 1242.9
L 1266.3 1242.9
Q 1256.55 1239.7 1246.45 1237.8 1229.35 1234.5 1210.85 1234.5 1209.05 1234.5 1207.4 1234.5 1204.9 1234.5 1202.55 1234.6
L 1199 1234.85 1199.35 1241.95 1202.9 1241.75
Q 1205.15 1241.6 1207.4 1241.6 1209.05 1241.6 1210.85 1241.6 1228.65 1241.6 1245.15 1244.8 1254.65 1246.6 1264.05 1249.7 1291.1 1258.35 1314.25 1276.65 1319.95 1281.15 1325.65 1286.35 1324.45 1288.25 1324.45 1290.75 1324.45 1294.45 1327.1 1297.05 1329.7 1299.65 1333.35 1299.65 1337.05 1299.65 1339.65 1297.05 1342.25 1294.45 1342.25 1290.75 1342.25 1287.1 1339.65 1284.45 1337.05 1281.85 1333.35 1281.85 Z"/>

<path fill="#6596B9" stroke="none" d="
M 1001.45 1445.2
L 994.45 1446.3 995.05 1449.85
Q 999.75 1479.5 1012.6 1506.1 1023.5 1528.65 1040.15 1548.85 1045.25 1555 1050.95 1560.95
L 1050.8 1560.85
Q 1053.2 1563.55 1055.95 1566.2 1083.95 1594.2 1117.05 1610.1 1129.3 1615.9 1142.25 1620.1 1174.5 1630.4 1210.95 1630.4 1216.9 1630.4 1222.85 1630.15 1223.45 1631 1224.15 1631.7 1226.75 1634.35 1230.45 1634.35 1234.1 1634.35 1236.75 1631.7 1239.35 1629.1 1239.35 1625.4 1239.35 1621.75 1236.75 1619.15 1234.1 1616.5 1230.45 1616.5 1226.75 1616.5 1224.15 1619.15 1222.5 1620.8 1221.9 1623.05 1216.45 1623.3 1210.95 1623.3 1175.7 1623.3 1144.35 1613.3 1131.9 1609.25 1120.15 1603.7 1088 1588.25 1060.9 1561.2 1058.4 1558.6 1056.05 1556.1
L 1056.05 1556
Q 1050.45 1550.25 1045.6 1544.35 1029.45 1524.85 1019 1503.05 1006.65 1477.4 1002.05 1448.65
L 1001.45 1445.2
M 1139.75 1215.85
Q 1143.4 1215.85 1146.05 1213.25 1148.65 1210.65 1148.65 1206.95 1148.65 1203.25 1146.05 1200.65 1143.4 1198.05 1139.75 1198.05 1136.05 1198.05 1133.45 1200.65 1131.1 1203.05 1130.85 1206.45 1114.7 1212.65 1099.85 1221.8 1095 1224.65 1090.35 1227.75
L 1087.5 1229.6 1109.7 1266.05
Q 1106.75 1268.1 1103.9 1270.35 1094.5 1277.45 1085.85 1286.25 1075.75 1296.35 1067.7 1307.25 1047.95 1333.6 1040 1364.85 1034.2 1386.8 1034.2 1411.15 1034.2 1414.1 1034.3 1416.95 1034.65 1429.55 1036.7 1441.55
L 1037.15 1445.1 1044.3 1443.9 1043.7 1440.35
Q 1041.8 1428.85 1041.45 1416.7 1041.3 1414 1041.3 1411.15 1041.3 1387.75 1046.9 1366.6 1054.6 1336.7 1073.4 1311.55 1081.2 1301.1 1090.95 1291.25
L 1090.85 1291.25
Q 1099.25 1282.95 1108.15 1276.05
L 1108.3 1276.05
Q 1112.3 1272.85 1116.45 1270
L 1119.3 1268.1 1097.1 1231.75
Q 1100.2 1229.75 1103.55 1227.85 1117.8 1219.15 1133.35 1213.1
L 1133.45 1213.25
Q 1136.05 1215.85 1139.75 1215.85 Z"/>

<path fill="#6596BA" stroke="none" d="
M 1314.95 1226.75
Q 1314.95 1230.45 1317.55 1233.05 1320.2 1235.65 1323.85 1235.65 1327.55 1235.65 1330.15 1233.05 1332.8 1230.45 1332.8 1226.75 1332.8 1223.1 1330.15 1220.5 1327.55 1217.85 1323.85 1217.85 1320.8 1217.85 1318.55 1219.65 1298.1 1207.9 1275.8 1201.25 1266.3 1198.3 1256.45 1196.4
L 1256.1 1196.25 1255.7 1196.25
Q 1254.4 1195.9 1253.35 1195.8 1232.95 1192 1210.95 1192 1189 1192 1168.7 1195.8
L 1165.25 1196.4 1173.45 1245.4 1180.45 1244.25 1173.45 1202.2
Q 1191.5 1199.1 1210.95 1199.1 1232.2 1199.1 1252.05 1202.8 1253.25 1202.9 1254.55 1203.25
L 1255 1203.4 1255.35 1203.4
Q 1264.75 1205.15 1273.65 1208
L 1273.75 1208
Q 1295.4 1214.55 1315.1 1225.8 1314.95 1226.3 1314.95 1226.75 Z"/>
</g>
</defs>

<g transform="matrix( 0.793365478515625, 0, 0, 0.793365478515625, -758.6,-917.35) ">
<use xlink:href="#Layer0_0_FILL"/>
</g>
</svg>
